<svg width="75" height="75" viewBox="0 0 75 75" fill="none" xmlns="http://www.w3.org/2000/svg">
<circle cx="37.5" cy="37.5" r="37.5" fill="#FF9330"/>
<path d="M17.4452 19.9455L18.061 20.092V25.8049C17.3843 26.2101 16.9009 26.9328 16.9009 27.7824C16.9009 28.6003 17.348 29.2844 17.976 29.7111L16.4658 35.7902C16.2966 36.4641 16.6717 37.1574 17.2035 37.1574H21.2399C21.7716 37.1574 22.1462 36.4616 21.977 35.8781L20.4664 29.716C21.0948 29.2863 21.5415 28.6027 21.5415 27.7824C21.5415 26.9279 21.0581 26.2082 20.3813 25.8049V20.6662L25.4087 21.8869L25.4088 27.7824C25.4088 34.6916 30.9437 40.2824 37.7838 40.2824C44.6239 40.2824 50.0718 34.6916 50.0718 27.7824L50.1587 21.8859L58.1106 19.9455C59.875 19.5182 59.875 17.3088 58.1106 16.8693L39.7028 12.3771C38.4459 12.0842 37.1292 12.0842 35.8714 12.3771L17.4442 16.8693C15.6924 17.2971 15.6924 19.5187 17.4452 19.9455V19.9455ZM47.761 42.7043L37.7837 52.7824L27.8063 42.7043C21.0455 44.882 16.1274 51.2199 16.1274 58.7687C16.1274 60.6437 17.6289 62.1574 19.4793 62.1574H56.0919C57.9414 62.1574 59.4399 60.6437 59.4399 58.7687C59.4399 51.2199 54.5189 44.882 47.761 42.7043Z" fill="#F4F4F4"/>
</svg>
