<svg width="75" height="75" viewBox="0 0 75 75" fill="none" xmlns="http://www.w3.org/2000/svg">
<circle cx="37.5" cy="37.5" r="37.5" fill="#2E9BFF"/>
<path d="M62.4961 53.7448L60.4617 46.3701L52.3486 16.8475C52.1075 15.9921 51.5293 15.2641 50.7398 14.8216C49.9504 14.3791 49.0134 14.2581 48.1327 14.4847L40.5589 16.4656C40.3697 16.5123 40.1881 16.5846 40.0196 16.6804C39.7149 16.1857 39.2839 15.7762 38.7685 15.4918C38.253 15.2074 37.6707 15.0578 37.0783 15.0575H29.2348C28.5335 15.0536 27.8482 15.2621 27.274 15.6542C26.6997 15.2621 26.0144 15.0536 25.3131 15.0575H17.4696C16.5595 15.0575 15.6867 15.4095 15.0432 16.0361C14.3996 16.6627 14.0381 17.5126 14.0381 18.3988V56.5849C14.0381 57.4711 14.3996 58.3209 15.0432 58.9475C15.6867 59.5742 16.5595 59.9262 17.4696 59.9262H25.3131C26.0144 59.9301 26.6997 59.7215 27.274 59.3295C27.8482 59.7215 28.5335 59.9301 29.2348 59.9262H37.0783C37.9884 59.9262 38.8612 59.5742 39.5048 58.9475C40.1483 58.3209 40.5098 57.4711 40.5098 56.5849V29.1864L48.2798 57.4441C48.4788 58.1566 48.9129 58.7856 49.5153 59.2342C50.1177 59.6827 50.8549 59.9259 51.6133 59.9262C51.9113 59.9216 52.2076 59.8815 52.4957 59.8069L60.0695 57.8259C60.9461 57.5965 61.6936 57.0382 62.1484 56.2733C62.6032 55.5084 62.7282 54.5993 62.4961 53.7448V53.7448ZM43.3776 28.5897L51.9074 26.3701L57.2508 45.7257L48.721 47.9453L43.3776 28.5897ZM41.0246 19.4728C41.0874 19.3593 41.1928 19.2739 41.3187 19.2341L48.8926 17.2532H49.0151C49.1216 17.2555 49.2249 17.2885 49.3122 17.348C49.3994 17.4074 49.4666 17.4907 49.5053 17.5873L51.1476 23.6016L42.6178 25.8212L40.9755 19.8308C40.9456 19.7096 40.9631 19.582 41.0246 19.4728V19.4728ZM29.2348 17.9215H37.0783C37.2083 17.9215 37.333 17.9717 37.4249 18.0613C37.5169 18.1508 37.5685 18.2722 37.5685 18.3988V47.5157H28.7446V18.3988C28.7446 18.2722 28.7963 18.1508 28.8882 18.0613C28.9801 17.9717 29.1048 17.9215 29.2348 17.9215ZM17.4696 17.9215H25.3131C25.4431 17.9215 25.5678 17.9717 25.6597 18.0613C25.7517 18.1508 25.8033 18.2722 25.8033 18.3988V24.604H16.9794V18.3988C16.9794 18.2722 17.031 18.1508 17.123 18.0613C17.2149 17.9717 17.3396 17.9215 17.4696 17.9215ZM25.3131 57.0622H17.4696C17.3396 57.0622 17.2149 57.0119 17.123 56.9224C17.031 56.8329 16.9794 56.7115 16.9794 56.5849V27.468H25.8033V56.5849C25.8033 56.7115 25.7517 56.8329 25.6597 56.9224C25.5678 57.0119 25.4431 57.0622 25.3131 57.0622ZM37.0783 57.0622H29.2348C29.1048 57.0622 28.9801 57.0119 28.8882 56.9224C28.7963 56.8329 28.7446 56.7115 28.7446 56.5849V50.3797H37.5685V56.5849C37.5685 56.7115 37.5169 56.8329 37.4249 56.9224C37.333 57.0119 37.2083 57.0622 37.0783 57.0622ZM59.3097 55.0575L51.7358 57.0384C51.6731 57.0565 51.6072 57.0621 51.5421 57.0551C51.4771 57.048 51.4142 57.0283 51.357 56.9972C51.2999 56.966 51.2498 56.9241 51.2096 56.8737C51.1694 56.8234 51.14 56.7658 51.123 56.7042L49.4808 50.7138L58.0106 48.4942L59.6528 54.4847C59.6712 54.5442 59.6768 54.6068 59.6693 54.6686C59.6618 54.7304 59.6413 54.79 59.6091 54.8437C59.5769 54.8974 59.5337 54.9441 59.4822 54.9809C59.4307 55.0177 59.372 55.0437 59.3097 55.0575V55.0575Z" fill="#F4F4F4"/>
</svg>
