<svg width="75" height="75" viewBox="0 0 75 75" fill="none" xmlns="http://www.w3.org/2000/svg">
<circle cx="37.5" cy="37.5" r="37.5" fill="#00C496"/>
<path d="M16.1045 60.4833C15.775 60.5908 15.4208 60.6042 15.0837 60.522C14.7466 60.4397 14.4407 60.2653 14.2022 60.0192C13.9637 59.7732 13.8024 59.4658 13.7376 59.1334C13.6727 58.801 13.7069 58.4575 13.8361 58.1434L17.1567 50.06C14.1274 46.1956 12.3796 41.5725 12.3796 36.8714C12.3796 25.1222 23.3029 13.8268 37.8672 13.8268C52.4315 13.8268 63.3547 25.1222 63.3547 36.8714C63.3547 48.6206 52.4315 59.916 37.8672 59.916C33.7825 59.9272 29.7516 59.0094 26.0956 57.2358L16.1045 60.4797V60.4833Z" fill="white"/>
<path d="M28.7644 40.4167H46.9698C48.1834 40.4167 48.7903 41.0076 48.7903 42.1894C48.7903 43.3712 48.1834 43.9621 46.9698 43.9621H28.7644C27.5507 43.9621 26.9438 43.3712 26.9438 42.1894C26.9438 41.0076 27.5507 40.4167 28.7644 40.4167ZM30.5849 29.7808H45.1492C46.3629 29.7808 46.9698 30.3716 46.9698 31.5534C46.9698 32.7352 46.3629 33.3261 45.1492 33.3261H30.5849C29.3712 33.3261 28.7644 32.7352 28.7644 31.5534C28.7644 30.3716 29.3712 29.7808 30.5849 29.7808Z" fill="#00C396"/>
</svg>
