<svg width="75" height="75" viewBox="0 0 75 75" fill="none" xmlns="http://www.w3.org/2000/svg">
<circle cx="37.5" cy="37.5" r="37.5" fill="#46AD4B"/>
<path d="M17.0084 59.3027C16.7037 59.4048 16.376 59.4175 16.0642 59.3394C15.7524 59.2613 15.4695 59.0956 15.2489 58.8619C15.0282 58.6281 14.8791 58.3361 14.8191 58.0203C14.7591 57.7045 14.7907 57.3781 14.9102 57.0798L17.9818 49.4006C15.1796 45.7294 13.563 41.3374 13.563 36.8714C13.563 25.7096 23.667 14.979 37.1389 14.979C50.6109 14.979 60.7149 25.7096 60.7149 36.8714C60.7149 48.0331 50.6109 58.7638 37.1389 58.7638C33.3606 58.7744 29.632 57.9025 26.2502 56.2175L17.0084 59.2993V59.3027Z" fill="#F4F4F4"/>
<path d="M37.139 39.5658C36.7851 39.5658 36.4348 39.4961 36.1079 39.3607C35.781 39.2253 35.4839 39.0269 35.2337 38.7766C34.9835 38.5264 34.7851 38.2294 34.6497 37.9025C34.5142 37.5756 34.4446 37.2252 34.4446 36.8714C34.4446 36.5175 34.5142 36.1672 34.6497 35.8403C34.7851 35.5134 34.9835 35.2163 35.2337 34.9661C35.4839 34.7159 35.781 34.5175 36.1079 34.382C36.4348 34.2466 36.7851 34.1769 37.139 34.1769C37.8536 34.1769 38.5389 34.4608 39.0442 34.9661C39.5495 35.4714 39.8333 36.1568 39.8333 36.8714C39.8333 37.586 39.5495 38.2713 39.0442 38.7766C38.5389 39.282 37.8536 39.5658 37.139 39.5658V39.5658ZM47.2429 39.5658C46.8891 39.5658 46.5387 39.4961 46.2118 39.3607C45.8849 39.2253 45.5879 39.0269 45.3377 38.7766C45.0875 38.5264 44.889 38.2294 44.7536 37.9025C44.6182 37.5756 44.5485 37.2252 44.5485 36.8714C44.5485 36.5175 44.6182 36.1672 44.7536 35.8403C44.889 35.5134 45.0875 35.2163 45.3377 34.9661C45.5879 34.7159 45.8849 34.5175 46.2118 34.382C46.5387 34.2466 46.8891 34.1769 47.2429 34.1769C47.9575 34.1769 48.6429 34.4608 49.1482 34.9661C49.6535 35.4714 49.9373 36.1568 49.9373 36.8714C49.9373 37.586 49.6535 38.2713 49.1482 38.7766C48.6429 39.282 47.9575 39.5658 47.2429 39.5658V39.5658ZM27.035 39.5658C26.6811 39.5658 26.3308 39.4961 26.0039 39.3607C25.677 39.2253 25.3799 39.0269 25.1297 38.7766C24.8795 38.5264 24.6811 38.2294 24.5457 37.9025C24.4103 37.5756 24.3406 37.2252 24.3406 36.8714C24.3406 36.5175 24.4103 36.1672 24.5457 35.8403C24.6811 35.5134 24.8795 35.2163 25.1297 34.9661C25.3799 34.7159 25.677 34.5175 26.0039 34.382C26.3308 34.2466 26.6811 34.1769 27.035 34.1769C27.7496 34.1769 28.4349 34.4608 28.9402 34.9661C29.4455 35.4714 29.7294 36.1568 29.7294 36.8714C29.7294 37.586 29.4455 38.2713 28.9402 38.7766C28.4349 39.282 27.7496 39.5658 27.035 39.5658Z" fill="#58B05C"/>
</svg>
