<svg width="75" height="75" viewBox="0 0 75 75" fill="none" xmlns="http://www.w3.org/2000/svg">
<circle cx="37.5" cy="37.5" r="37.5" fill="#FF2E2E"/>
<path d="M31.4399 30.3572C32.8799 28.6143 35.0599 27.5001 37.4999 27.5001C39.9399 27.5001 42.1199 28.6143 43.5599 30.3572C44.508 31.5067 45.1097 32.902 45.2948 34.3804C45.4799 35.8589 45.2408 37.3595 44.6054 38.7072C43.97 40.0549 42.9645 41.1942 41.7061 41.9921C40.4478 42.79 38.9885 43.2137 37.4985 43.2137C36.0085 43.2137 34.5492 42.79 33.2909 41.9921C32.0325 41.1942 31.027 40.0549 30.3916 38.7072C29.7562 37.3595 29.5171 35.8589 29.7022 34.3804C29.8873 32.902 30.489 31.5067 31.4371 30.3572H31.4399ZM48.2142 35.3572C48.2142 33.5515 47.7685 31.8486 46.9799 30.3572H58.9285C60.0651 30.3572 61.1552 30.8087 61.959 31.6124C62.7627 32.4162 63.2142 33.5063 63.2142 34.6429V36.0715C63.2142 40.6058 59.7685 45.2486 53.7428 46.8829C53.1236 45.7706 52.2183 44.8439 51.1207 44.1989C50.0231 43.5539 48.773 43.214 47.4999 43.2143H44.7856C45.8686 42.2123 46.7323 40.9969 47.3224 39.6447C47.9125 38.2924 48.2161 36.8326 48.2142 35.3572ZM47.4999 46.0715C48.0632 46.07 48.6211 46.1798 49.1418 46.3946C49.6624 46.6095 50.1355 46.9251 50.5337 47.3234C50.932 47.7216 51.2476 48.1947 51.4625 48.7153C51.6773 49.236 51.7872 49.794 51.7856 50.3572V51.7858C51.7856 57.4172 46.4714 63.2143 37.4999 63.2143C28.5285 63.2143 23.2142 57.4172 23.2142 51.7858V50.3572C23.2127 49.794 23.3225 49.236 23.5374 48.7153C23.7522 48.1947 24.0678 47.7216 24.4661 47.3234C24.8644 46.9251 25.3374 46.6095 25.8581 46.3946C26.3787 46.1798 26.9367 46.07 27.4999 46.0715H47.4999ZM11.7856 36.0715C11.7856 40.6058 15.2314 45.2486 21.2571 46.8829C21.8763 45.7706 22.7816 44.8439 23.8792 44.1989C24.9768 43.5539 26.2268 43.214 27.4999 43.2143H30.2142C29.1313 42.2123 28.2675 40.9969 27.6775 39.6447C27.0874 38.2924 26.7837 36.8326 26.7856 35.3572C26.7856 33.5515 27.2314 31.8486 28.0228 30.3572H16.0714C14.9347 30.3572 13.8446 30.8087 13.0409 31.6124C12.2372 32.4162 11.7856 33.5063 11.7856 34.6429V36.0715ZM33.9285 19.6429C33.9285 17.5591 33.1007 15.5606 31.6272 14.0871C30.1537 12.6136 28.1552 11.7858 26.0714 11.7858C23.9875 11.7858 21.989 12.6136 20.5155 14.0871C19.042 15.5606 18.2142 17.5591 18.2142 19.6429C18.2142 21.7268 19.042 23.7252 20.5155 25.1987C21.989 26.6722 23.9875 27.5001 26.0714 27.5001C28.1552 27.5001 30.1537 26.6722 31.6272 25.1987C33.1007 23.7252 33.9285 21.7268 33.9285 19.6429V19.6429ZM56.7856 19.6429C56.7856 17.5591 55.9578 15.5606 54.4843 14.0871C53.0108 12.6136 51.0123 11.7858 48.9285 11.7858C46.8447 11.7858 44.8462 12.6136 43.3727 14.0871C41.8992 15.5606 41.0714 17.5591 41.0714 19.6429C41.0714 21.7268 41.8992 23.7252 43.3727 25.1987C44.8462 26.6722 46.8447 27.5001 48.9285 27.5001C51.0123 27.5001 53.0108 26.6722 54.4843 25.1987C55.9578 23.7252 56.7856 21.7268 56.7856 19.6429V19.6429Z" fill="#F4F4F4"/>
</svg>
