<svg width="26" height="30" viewBox="0 0 26 30" fill="none" xmlns="http://www.w3.org/2000/svg">
<path d="M25.2774 23.106L17.5763 11.7358V1.828H18.4899C18.7322 1.828 18.9645 1.73171 19.1358 1.5603C19.3072 1.38889 19.4034 1.15641 19.4034 0.914002C19.4034 0.671594 19.3072 0.439114 19.1358 0.267705C18.9645 0.0962964 18.7322 0 18.4899 0H7.52745C7.28517 0 7.05281 0.0962964 6.88149 0.267705C6.71017 0.439114 6.61392 0.671594 6.61392 0.914002C6.61392 1.15641 6.71017 1.38889 6.88149 1.5603C7.05281 1.73171 7.28517 1.828 7.52745 1.828H8.44099V11.7358L0.685079 23.1791C0.170761 23.9309 -0.0658772 24.8383 0.0158078 25.7457C0.0974928 26.653 0.492403 27.5036 1.13271 28.1513C1.51619 28.5152 1.96793 28.7995 2.46185 28.9877C2.95576 29.176 3.48206 29.2645 4.01034 29.2481H22.144C22.8557 29.2449 23.5527 29.0456 24.1586 28.672C24.7645 28.2984 25.2559 27.7651 25.5787 27.1305C25.9015 26.4959 26.0433 25.7846 25.9885 25.0746C25.9338 24.3647 25.6846 23.6835 25.2683 23.106H25.2774ZM23.834 26.5061C23.6158 26.7838 23.3387 27.0099 23.0229 27.1679C22.707 27.3259 22.3601 27.412 22.007 27.4201H3.87331C3.46607 27.4213 3.06805 27.2988 2.73199 27.0686C2.39593 26.8385 2.13767 26.5116 1.99143 26.1313C1.89357 25.8007 1.86659 25.4531 1.91224 25.1113C1.95789 24.7696 2.07516 24.4413 2.25636 24.1479L4.99696 20.0898H17.7864L16.5897 18.2618H6.2211L10.2681 12.3025V1.828H15.7493V12.3025L23.8249 24.2302C24.0525 24.5656 24.1749 24.9613 24.1765 25.3667C24.1782 25.7721 24.0589 26.1688 23.834 26.5061Z" fill="#7C7E8F"/>
</svg>
