<svg width="26" height="23" viewBox="0 0 26 23" fill="none" xmlns="http://www.w3.org/2000/svg">
<path d="M24.0741 3.03902H15.7324L12.3861 0.405266C12.0544 0.138884 11.6478 -0.00368489 11.2306 7.24064e-05H5.77778C5.26699 7.24064e-05 4.77712 0.213522 4.41594 0.593464C4.05476 0.973407 3.85185 1.48872 3.85185 2.02604V4.05201H1.92593C1.41514 4.05201 0.925272 4.26546 0.564091 4.6454C0.202909 5.02534 0 5.54066 0 6.07798V20.2597C0 20.7971 0.202909 21.3124 0.564091 21.6923C0.925272 22.0723 1.41514 22.2857 1.92593 22.2857H20.3306C20.8116 22.2824 21.2721 22.0799 21.6123 21.722C21.9525 21.3642 22.145 20.8798 22.1481 20.3737V18.2338H24.1824C24.6635 18.2305 25.124 18.028 25.4642 17.6701C25.8043 17.3122 25.9968 16.8278 26 16.3218V5.06499C26 4.52767 25.7971 4.01236 25.4359 3.63242C25.0747 3.25247 24.5849 3.03902 24.0741 3.03902ZM20.2222 20.2597H1.92593V6.07798H7.3787L10.725 8.71173C11.0567 8.97812 11.4633 9.12068 11.8806 9.11693H20.2222V20.2597ZM24.0741 16.2078H22.1481V9.11693C22.1481 8.57961 21.9452 8.06429 21.5841 7.68435C21.2229 7.30441 20.733 7.09096 20.2222 7.09096H11.8806L8.53426 4.4572C8.20257 4.19082 7.79599 4.04825 7.3787 4.05201H5.77778V2.02604H11.2306L14.5769 4.6598C14.9085 4.92618 15.3151 5.06875 15.7324 5.06499H24.0741V16.2078Z" fill="#333333"/>
</svg>
