<svg width="26" height="25" viewBox="0 0 26 25" fill="none" xmlns="http://www.w3.org/2000/svg">
<path d="M25.9271 20.9039L24.8596 17.0232L20.6028 1.48787C20.4611 0.973302 20.116 0.534729 19.6433 0.268598C19.1706 0.00246781 18.609 -0.0694291 18.0821 0.0687182L14.1081 1.1111L13.9795 1.14878C13.7878 0.903219 13.5408 0.704101 13.2575 0.566884C12.9742 0.429667 12.6624 0.358043 12.3462 0.357572H8.23081C7.86878 0.358523 7.51358 0.45391 7.20196 0.633867C6.89034 0.45391 6.53514 0.358523 6.17311 0.357572H2.0577C1.51197 0.357572 0.988582 0.569278 0.602687 0.946117C0.216793 1.32296 0 1.83406 0 2.36699V22.4612C0 22.9941 0.216793 23.5052 0.602687 23.882C0.988582 24.2589 1.51197 24.4706 2.0577 24.4706H6.17311C6.53514 24.4696 6.89034 24.3743 7.20196 24.1943C7.51358 24.3743 7.86878 24.4696 8.23081 24.4706H12.3462C12.892 24.4706 13.4153 24.2589 13.8012 23.882C14.1871 23.5052 14.4039 22.9941 14.4039 22.4612V9.95254L16.9118 19.0954L17.9792 22.9761C18.0957 23.4053 18.3545 23.7847 18.7151 24.055C19.0757 24.3254 19.5179 24.4715 19.9726 24.4706C20.1501 24.4676 20.3268 24.4465 20.4999 24.4078L24.4738 23.3654C24.7352 23.2969 24.9801 23.1783 25.1943 23.0166C25.4084 22.8549 25.5876 22.6533 25.7213 22.4235C25.8584 22.1967 25.9473 21.9453 25.9827 21.6842C26.018 21.4231 25.9991 21.1577 25.9271 20.9039ZM15.9729 7.90545L19.9469 6.86306L22.609 16.5711L18.6351 17.6135L15.9729 7.90545ZM18.6094 2.01534L19.4196 4.91644L15.4456 5.95883L14.6354 3.05773L18.6094 2.01534ZM12.3462 2.36699V17.4376H8.23081V2.36699H12.3462ZM6.17311 2.36699V5.38112H2.0577V2.36699H6.17311ZM2.0577 22.4612V7.39054H6.17311V22.4612H2.0577ZM12.3462 22.4612H8.23081V19.447H12.3462V22.4612ZM23.9465 21.4188L19.9726 22.4612L19.1624 19.5475L23.1492 18.5051L23.9465 21.4188Z" fill="#7C7E8F"/>
</svg>
