<svg width="26" height="31" viewBox="0 0 26 31" fill="none" xmlns="http://www.w3.org/2000/svg">
<path d="M23.8333 13H21.6667V8.66667C21.6667 6.36812 20.7536 4.16372 19.1283 2.53841C17.5029 0.913093 15.2985 0 13 0C10.7015 0 8.49706 0.913093 6.87174 2.53841C5.24643 4.16372 4.33333 6.36812 4.33333 8.66667V13H2.16667L0 15.1667V28.1667L2.16667 30.3333H23.8333L26 28.1667V15.1667L23.8333 13ZM6.5 8.66667C6.5 6.94276 7.18482 5.28946 8.40381 4.07047C9.62279 2.85149 11.2761 2.16667 13 2.16667C14.7239 2.16667 16.3772 2.85149 17.5962 4.07047C18.8152 5.28946 19.5 6.94276 19.5 8.66667V13H6.5V8.66667ZM23.8333 28.1667H2.16667V15.1667H23.8333V28.1667Z" fill="#D7D7D7"/>
</svg>
