<svg width="26" height="26" viewBox="0 0 26 26" fill="none" xmlns="http://www.w3.org/2000/svg">
<path d="M16.8998 26C17.2446 26 17.5752 25.863 17.819 25.6192C18.0628 25.3754 18.1998 25.0448 18.1998 24.7C18.1998 24.3552 18.0628 24.0246 17.819 23.7808C17.5752 23.537 17.2446 23.4 16.8998 23.4H6.0666C5.14719 23.4 4.26544 23.0348 3.61532 22.3846C2.9652 21.7345 2.59997 20.8528 2.59997 19.9333V6.06667C2.59997 5.14725 2.9652 4.26549 3.61532 3.61536C4.26544 2.96524 5.14719 2.6 6.0666 2.6H16.8998C17.2446 2.6 17.5752 2.46304 17.819 2.21924C18.0628 1.97544 18.1998 1.64478 18.1998 1.3C18.1998 0.955219 18.0628 0.624558 17.819 0.380761C17.5752 0.136964 17.2446 0 16.8998 0H6.0666C4.45764 0 2.91457 0.639165 1.77687 1.77689C0.639158 2.91461 0 4.45769 0 6.06667V19.9333C0 21.5423 0.639158 23.0854 1.77687 24.2231C2.91457 25.3608 4.45764 26 6.0666 26H16.8998ZM18.6175 6.4116C18.7429 6.29571 18.8899 6.20567 19.0502 6.14661C19.2104 6.08755 19.3806 6.06063 19.5513 6.06739C19.7219 6.07415 19.8895 6.11446 20.0445 6.18601C20.1996 6.25756 20.339 6.35895 20.4548 6.4844L25.6548 12.1177C25.8767 12.3579 26 12.673 26 13C26 13.327 25.8767 13.6421 25.6548 13.8823L20.4548 19.5156C20.2206 19.7687 19.8955 19.9183 19.5509 19.9317C19.2063 19.945 18.8706 19.8209 18.6175 19.5867C18.3645 19.3524 18.2148 19.0273 18.2015 18.6827C18.1881 18.3382 18.3122 18.0024 18.5465 17.7493L21.7323 14.2983H8.23324C7.88846 14.2983 7.55781 14.1613 7.31401 13.9175C7.07022 13.6737 6.93326 13.343 6.93326 12.9983C6.93326 12.6535 7.07022 12.3228 7.31401 12.079C7.55781 11.8352 7.88846 11.6983 8.23324 11.6983H21.7306L18.5447 8.2472C18.4288 8.12179 18.3388 7.97478 18.2797 7.81457C18.2207 7.65435 18.1938 7.48407 18.2005 7.31345C18.2073 7.14283 18.2476 6.97522 18.3191 6.82018C18.3907 6.66514 18.4921 6.52571 18.6175 6.40987V6.4116Z" fill="#7C7E8F"/>
</svg>
