<svg width="26" height="26" viewBox="0 0 26 26" fill="none" xmlns="http://www.w3.org/2000/svg">
<path d="M9.75 0C7.68083 0 6.00492 1.50258 5.58567 3.45367C3.05933 3.90433 1.08333 6.0125 1.08333 8.66667C1.08333 8.93317 1.11258 9.17042 1.15158 9.412C0.452834 10.439 0 11.6491 0 13C0 14.9468 0.969583 16.5848 2.33567 17.7732C2.23817 18.1588 2.16667 18.5434 2.16667 18.9583C2.16667 21.6374 4.36258 23.8333 7.04167 23.8333H7.10992C7.74042 25.0564 8.83242 26 10.2917 26C10.7972 25.9988 11.2973 25.8963 11.7625 25.6985C12.2277 25.5007 12.6485 25.2117 13 24.8484C13.3515 25.2117 13.7723 25.5007 14.2375 25.6985C14.7027 25.8963 15.2028 25.9988 15.7083 26C17.1687 26 18.2596 25.0564 18.8912 23.8333H18.9583C21.502 23.8333 23.5874 21.853 23.7998 19.3646H23.8333C23.8333 19.2963 23.8041 19.2292 23.7998 19.1609C23.8041 19.0938 23.8333 19.0255 23.8333 18.9583C23.8333 18.5564 23.6893 18.213 23.5961 17.8414C25.0012 16.6476 26 14.9814 26 13C26 11.6502 25.5472 10.4401 24.8484 9.41092C24.8874 9.17042 24.9167 8.93425 24.9167 8.66667C24.9167 6.0125 22.9407 3.90542 20.4143 3.45258C19.9951 1.50367 18.3192 0 16.25 0C14.95 0 13.7952 0.605583 13 1.52317C12.2048 0.606667 11.05 0 9.75 0ZM9.75 2.16667C10.9601 2.16667 11.9167 3.12325 11.9167 4.33333V6.5C11.9167 8.307 10.4737 9.75 8.66667 9.75V11.9167C9.89408 11.9167 11.0067 11.4942 11.9167 10.7998V22.2083C11.9167 23.1183 11.2017 23.8333 10.2917 23.8333C9.91264 23.8386 9.54415 23.7086 9.25244 23.4665C8.96073 23.2244 8.76494 22.8863 8.70025 22.5128L8.49767 21.4641L7.44792 21.6331C7.0622 21.694 6.66784 21.6704 6.29217 21.5638C5.91649 21.4572 5.56848 21.2702 5.27222 21.0158C4.97597 20.7614 4.73857 20.4456 4.57645 20.0903C4.41433 19.7351 4.33138 19.3488 4.33333 18.9583C4.33333 18.6236 4.3875 18.3105 4.50233 18.0104C4.511 17.9855 4.52833 17.9671 4.53592 17.9422C4.70214 17.5292 4.96884 17.1643 5.31183 16.8805C5.65481 16.5968 6.06322 16.4031 6.5 16.3172L6.06017 14.1852C4.95451 14.4036 3.96024 15.0023 3.25 15.8773C2.54562 15.0851 2.15968 14.0601 2.16667 13C2.16482 12.0258 2.49969 11.0809 3.11458 10.3253L3.45367 9.919L3.35183 9.37733C3.29045 9.1452 3.25627 8.9067 3.25 8.66667C3.25 6.85967 4.693 5.41667 6.5 5.41667H7.58333V4.33333C7.58333 3.12325 8.53992 2.16667 9.75 2.16667ZM16.25 2.16667C17.4601 2.16667 18.4167 3.12325 18.4167 4.33333V5.41667H19.5C21.307 5.41667 22.75 6.85967 22.75 8.66667C22.75 8.89958 22.7067 9.12383 22.6482 9.37733L22.5474 9.919L22.8854 10.3253C23.5003 11.0809 23.8352 12.0258 23.8333 13C23.8333 14.3 23.2787 15.4592 22.3773 16.25C21.6374 15.5946 20.6938 15.1667 19.6354 15.1667C18.6117 15.1667 17.6887 15.5307 16.9607 16.1482L18.3495 17.8078C18.7069 17.4998 19.1636 17.3313 19.6354 17.3333C20.6808 17.3333 21.5139 18.1166 21.6331 19.1273C21.5443 20.5541 20.4057 21.6667 18.9583 21.6667C18.8608 21.6667 18.7417 21.6623 18.5521 21.6331L17.5023 21.463L17.2998 22.5138C17.2348 22.8871 17.0389 23.2251 16.7472 23.4669C16.4556 23.7088 16.0872 23.8387 15.7083 23.8333C14.7983 23.8333 14.0833 23.1183 14.0833 22.2083V10.7998C15.0134 11.521 16.1563 11.9138 17.3333 11.9167V9.75C15.5263 9.75 14.0833 8.307 14.0833 6.5V4.33333C14.0833 3.12325 15.0399 2.16667 16.25 2.16667Z" fill="#7C7E8F"/>
</svg>
