<svg width="28" height="28" viewBox="0 0 28 28" fill="none" xmlns="http://www.w3.org/2000/svg">
<path d="M14 27C21.1797 27 27 21.1797 27 14C27 6.8203 21.1797 1 14 1C6.8203 1 1 6.8203 1 14C1 21.1797 6.8203 27 14 27Z" stroke="#333333" stroke-width="2" stroke-linecap="round" stroke-linejoin="round"/>
<path d="M14.0002 16.8889C15.5957 16.8889 16.8891 15.5955 16.8891 14C16.8891 12.4045 15.5957 11.1111 14.0002 11.1111C12.4047 11.1111 11.1113 12.4045 11.1113 14C11.1113 15.5955 12.4047 16.8889 14.0002 16.8889Z" stroke="#333333" stroke-width="2" stroke-linecap="round" stroke-linejoin="round"/>
<path d="M16.8891 14L26.6391 11.1111M14.0002 16.8889V27V16.8889ZM11.1113 14L1.36133 11.1111L11.1113 14Z" stroke="#333333" stroke-width="2" stroke-linecap="round" stroke-linejoin="round"/>
</svg>
