<svg width="26" height="26" viewBox="0 0 26 26" fill="none" xmlns="http://www.w3.org/2000/svg">
<path d="M1.85714 0H0V24.1429C0 24.6354 0.195663 25.1078 0.543944 25.4561C0.892226 25.8043 1.3646 26 1.85714 26H26V24.1429H1.85714V0Z" fill="#D7D7D7"/>
<path d="M26 7.3938H18.4167V9.56047H22.3058L14.0833 17.783L9.43583 13.1246C9.33512 13.0231 9.21531 12.9425 9.08329 12.8875C8.95128 12.8325 8.80968 12.8042 8.66667 12.8042C8.52365 12.8042 8.38206 12.8325 8.25004 12.8875C8.11803 12.9425 7.99821 13.0231 7.8975 13.1246L0 21.033L1.5275 22.5605L8.66667 15.4213L13.3142 20.0796C13.4149 20.1812 13.5347 20.2618 13.6667 20.3168C13.7987 20.3718 13.9403 20.4001 14.0833 20.4001C14.2263 20.4001 14.3679 20.3718 14.5 20.3168C14.632 20.2618 14.7518 20.1812 14.8525 20.0796L23.8333 11.088V14.9771H26V7.3938Z" fill="#D7D7D7"/>
</svg>
