<svg width="26" height="26" viewBox="0 0 26 26" fill="none" xmlns="http://www.w3.org/2000/svg">
<path d="M13 11.9167C13.5958 11.9167 14.1061 11.7043 14.5308 11.2797C14.9547 10.8557 15.1667 10.3458 15.1667 9.75C15.1667 9.15417 14.9547 8.64392 14.5308 8.21925C14.1061 7.79531 13.5958 7.58333 13 7.58333C12.4042 7.58333 11.8943 7.79531 11.4703 8.21925C11.0457 8.64392 10.8333 9.15417 10.8333 9.75C10.8333 10.3458 11.0457 10.8557 11.4703 11.2797C11.8943 11.7043 12.4042 11.9167 13 11.9167ZM13 14.0833C11.8083 14.0833 10.7882 13.659 9.93958 12.8104C9.09097 11.9618 8.66667 10.9417 8.66667 9.75C8.66667 8.55833 9.09097 7.5382 9.93958 6.68958C10.7882 5.84097 11.8083 5.41667 13 5.41667C14.1917 5.41667 15.2118 5.84097 16.0604 6.68958C16.909 7.5382 17.3333 8.55833 17.3333 9.75C17.3333 10.9417 16.909 11.9618 16.0604 12.8104C15.2118 13.659 14.1917 14.0833 13 14.0833ZM13 26C11.2125 26 9.529 25.6613 7.9495 24.9838C6.36928 24.3071 4.98803 23.3776 3.80575 22.1953C2.62275 21.0123 1.69289 19.6311 1.01617 18.0516C0.338722 16.4714 0 14.7875 0 13C0 11.2125 0.338722 9.52864 1.01617 7.94842C1.69289 6.36892 2.62275 4.98767 3.80575 3.80467C4.98803 2.62239 6.36928 1.69289 7.9495 1.01617C9.529 0.338722 11.2125 0 13 0C14.7875 0 16.4714 0.338722 18.0516 1.01617C19.6311 1.69289 21.0123 2.62239 22.1953 3.80467C23.3776 4.98767 24.3071 6.36892 24.9838 7.94842C25.6613 9.52864 26 11.2125 26 13C26 14.7875 25.6613 16.4714 24.9838 18.0516C24.3071 19.6311 23.3776 21.0123 22.1953 22.1953C21.0123 23.3776 19.6311 24.3071 18.0516 24.9838C16.4714 25.6613 14.7875 26 13 26ZM13 23.8333C14.3 23.8333 15.5188 23.6257 16.6562 23.2104C17.7938 22.7951 18.8319 22.2083 19.7708 21.45C19.175 20.7819 18.2993 20.1998 17.1438 19.7037C15.9882 19.2068 14.6069 18.9583 13 18.9583C11.3931 18.9583 10.0118 19.2068 8.85625 19.7037C7.7007 20.1998 6.825 20.7819 6.22917 21.45C7.16806 22.2083 8.20625 22.7951 9.34375 23.2104C10.4813 23.6257 11.7 23.8333 13 23.8333ZM4.65833 19.9333C5.525 18.9944 6.68958 18.2361 8.15208 17.6583C9.61458 17.0806 11.2306 16.7917 13 16.7917C14.7694 16.7917 16.3811 17.0806 17.8349 17.6583C19.288 18.2361 20.4479 18.9944 21.3146 19.9333C22.109 18.9764 22.7276 17.9111 23.1703 16.7375C23.6123 15.5639 23.8333 14.3181 23.8333 13C23.8333 11.5014 23.5488 10.0978 22.9797 8.78908C22.4113 7.47969 21.6349 6.33317 20.6505 5.3495C19.6668 4.36511 18.5203 3.58836 17.2109 3.01925C15.9023 2.45086 14.4986 2.16667 13 2.16667C11.5194 2.16667 10.1201 2.45086 8.80208 3.01925C7.48403 3.58836 6.33317 4.36511 5.3495 5.3495C4.36511 6.33317 3.58872 7.47969 3.02033 8.78908C2.45122 10.0978 2.16667 11.5014 2.16667 13C2.16667 14.3181 2.38333 15.5686 2.81667 16.7516C3.25 17.9339 3.86389 18.9944 4.65833 19.9333Z" fill="#333333"/>
</svg>
